<?xml version="1.0" encoding="iso-8859-1"?>
<!-- Generator: Adobe Illustrator 19.0.0, SVG Export Plug-In . SVG Version: 6.00 Build 0)  -->
<svg version="1.1" id="Layer_1" xmlns="http://www.w3.org/2000/svg" xmlns:xlink="http://www.w3.org/1999/xlink" x="0px" y="0px"
	 viewBox="0 0 343.567 343.567" style="enable-background:new 0 0 343.567 343.567;" xml:space="preserve">
<g>
	<path style="fill:#E8E8E8;" d="M343.567,274.016c0,13.75-11.25,25-25,25H25c-13.75,0-25-11.25-25-25V69.551c0-13.75,11.25-25,25-25
		h293.567c13.75,0,25,11.25,25,25V274.016z"/>
	<path style="fill:#333E48;" d="M318.567,44.551H25c-13.75,0-25,11.25-25,25v11.82h343.567v-11.82
		C343.567,55.801,332.317,44.551,318.567,44.551z"/>
	<circle style="fill:#FB7598;" cx="32.117" cy="62.961" r="8.257"/>
	<circle style="fill:#FEE050;" cx="62.527" cy="62.961" r="8.257"/>
	<circle style="fill:#61B4E4;" cx="92.937" cy="62.961" r="8.257"/>
	<g>
		<rect x="44.599" y="115.039" style="fill:#61B4E4;" width="85.651" height="81.034"/>
		<rect x="160.572" y="115.039" style="fill:#005CB9;" width="139.73" height="33.759"/>
		<rect x="160.572" y="162.313" style="fill:#FFFFFF;" width="139.73" height="33.76"/>
		<rect x="44.599" y="214.443" style="fill:#005CB9;" width="115.973" height="41.263"/>
		<rect x="252.788" y="214.443" style="fill:#005CB9;" width="47.514" height="41.263"/>
		<rect x="182.922" y="214.443" style="fill:#61B4E4;" width="47.515" height="41.263"/>
	</g>
	<polygon style="fill:#1E252B;" points="228.924,175.229 246.468,168.145 198.621,154.71 212.056,202.557 219.142,185.012 
		237.806,203.676 247.587,193.893 	"/>
</g>
<g>
</g>
<g>
</g>
<g>
</g>
<g>
</g>
<g>
</g>
<g>
</g>
<g>
</g>
<g>
</g>
<g>
</g>
<g>
</g>
<g>
</g>
<g>
</g>
<g>
</g>
<g>
</g>
<g>
</g>
</svg>
