<?xml version="1.0" encoding="iso-8859-1"?>
<!-- Generator: Adobe Illustrator 19.1.0, SVG Export Plug-In . SVG Version: 6.00 Build 0)  -->
<svg version="1.1" id="Capa_1" xmlns="http://www.w3.org/2000/svg" xmlns:xlink="http://www.w3.org/1999/xlink" x="0px" y="0px"
	 viewBox="0 0 512 512" style="enable-background:new 0 0 512 512;" xml:space="preserve">
<g>
	<g>
		<g>
			<path style="fill:#5C546A;" d="M208.016,478.357c-5.695,0-11.406-1.371-16.695-4.137l-91.703-47.938
				C85.055,418.67,76,403.728,76,387.291v-44.039c0-6.629,5.375-12,12-12c6.625,0,12,5.371,12,12v44.039
				c0,7.473,4.117,14.262,10.734,17.723l91.711,47.941c5.406,2.82,10.039,0.668,11.773-0.371c1.734-1.055,5.781-4.164,5.781-10.266
				v-27.066c0-6.629,5.375-12,12-12c6.625,0,12,5.371,12,12v27.066c0,12.703-6.484,24.211-17.352,30.793
				C220.883,476.603,214.461,478.357,208.016,478.357z"/>
		</g>
	</g>
	<g>
		<path style="fill:#B9BBC1;" d="M356.437,37.139c-7.25-4.391-16.055-4.656-23.555-0.738L8.594,205.916
			C3.289,208.682,0,214.115,0,220.096v70.309c0,5.98,3.289,11.414,8.594,14.18l324.289,169.519c3.523,1.84,7.328,2.758,11.125,2.758
			c4.297,0,8.586-1.172,12.43-3.504C363.68,468.974,368,461.299,368,452.834V57.67C368,49.201,363.68,41.525,356.437,37.139z"/>
	</g>
	<g>
		<path style="fill:#8B8996;" d="M0,257.646v32.758c0,5.98,3.289,11.414,8.594,14.18l324.289,169.519
			c3.523,1.84,7.328,2.758,11.125,2.758c4.297,0,8.586-1.172,12.43-3.504C363.68,468.974,368,461.299,368,452.834V257.646H0z"/>
	</g>
	<g>
		<g>
			<path style="fill:#B9BBC1;" d="M405.258,308.506c-2.047,0-4.094-0.781-5.656-2.344c-3.125-3.121-3.125-8.188,0-11.312
				c21.828-21.836,21.828-57.363,0-79.199c-3.125-3.125-3.125-8.191,0-11.312c3.125-3.125,8.187-3.125,11.312,0
				c28.07,28.074,28.07,73.75,0,101.824C409.351,307.725,407.304,308.506,405.258,308.506z"/>
		</g>
	</g>
	<g>
		<g>
			<path style="fill:#B9BBC1;" d="M433.539,336.791c-2.047,0-4.094-0.781-5.656-2.344c-3.125-3.125-3.125-8.188,0-11.312
				C446.015,305.002,456,280.893,456,255.252c0-25.645-9.984-49.75-28.117-67.883c-3.125-3.125-3.125-8.188,0-11.312
				s8.188-3.125,11.312,0C460.351,197.209,472,225.334,472,255.252c0,29.914-11.648,58.039-32.805,79.195
				C437.633,336.01,435.586,336.791,433.539,336.791z"/>
		</g>
	</g>
	<g>
		<g>
			<path style="fill:#B9BBC1;" d="M461.82,365.072c-2.047,0-4.094-0.781-5.656-2.344c-3.125-3.125-3.125-8.191,0-11.312
				C481.851,325.728,496,291.576,496,255.248c0-36.324-14.148-70.477-39.836-96.164c-3.125-3.121-3.125-8.187,0-11.312
				s8.188-3.125,11.312,0C496.187,176.479,512,214.65,512,255.248c0,40.602-15.812,78.773-44.523,107.48
				C465.914,364.291,463.867,365.072,461.82,365.072z"/>
		</g>
	</g>
</g>
<g>
</g>
<g>
</g>
<g>
</g>
<g>
</g>
<g>
</g>
<g>
</g>
<g>
</g>
<g>
</g>
<g>
</g>
<g>
</g>
<g>
</g>
<g>
</g>
<g>
</g>
<g>
</g>
<g>
</g>
</svg>
